<svg width="14" height="17" viewBox="0 0 14 17" fill="none" xmlns="http://www.w3.org/2000/svg">
<path fill-rule="evenodd" clip-rule="evenodd" d="M9.33809 7.33508C9.33809 8.5747 8.33433 9.57836 7.09458 9.57836C5.85484 9.57836 4.85107 8.5747 4.85107 7.33508C4.85107 6.09546 5.85484 5.0918 7.09458 5.0918C8.33433 5.0918 9.33809 6.09546 9.33809 7.33508ZM8.59025 7.33508C8.59025 8.16094 7.92053 8.8306 7.09458 8.8306C6.26864 8.8306 5.59891 8.16094 5.59891 7.33508C5.59891 6.50922 6.26864 5.83956 7.09458 5.83956C7.92053 5.83956 8.59025 6.50922 8.59025 7.33508Z" fill="#0C0C0C"/>
<path fill-rule="evenodd" clip-rule="evenodd" d="M13.8246 7.32946C13.8246 10.1277 11.7689 12.0619 9.86607 13.8516C8.95371 14.7107 8.07459 15.5365 7.47632 16.4089C7.30183 16.6632 6.88802 16.6632 6.71353 16.4089C6.11526 15.5365 5.23614 14.7107 4.32378 13.8516C2.42095 12.0603 0.365234 10.1277 0.365234 7.32946C0.365234 3.61225 3.37818 0.599609 7.09576 0.599609C10.8133 0.599609 13.8263 3.61225 13.8263 7.32946H13.8246ZM13.0768 7.32946C13.0768 9.10248 12.1212 10.5199 10.8034 11.8958C10.3414 12.3793 9.85777 12.833 9.36918 13.2933C9.15646 13.4927 8.94374 13.6937 8.72936 13.8981C8.14439 14.4598 7.56606 15.043 7.0941 15.6628C6.62213 15.043 6.0438 14.4598 5.45883 13.8981C5.24611 13.6937 5.03173 13.4927 4.81901 13.2933C4.33043 12.833 3.84849 12.3793 3.38483 11.8958C2.06697 10.5199 1.11141 9.10248 1.11141 7.32946C1.11141 4.02601 3.79032 1.34737 7.0941 1.34737C10.3979 1.34737 13.0768 4.02601 13.0768 7.32946Z" fill="#0C0C0C"/>
</svg>
