<svg width="27" height="36" viewBox="0 0 27 36" fill="none" xmlns="http://www.w3.org/2000/svg">
<path d="M1.5744 20.0823C1.24685 19.7107 0.679628 19.6708 0.308142 19.9984C-0.0673392 20.326 -0.10329 20.8932 0.220263 21.2687L12.8029 35.6503C12.9746 35.8461 13.2223 35.9579 13.4819 35.9579C13.7416 35.9579 13.9892 35.8461 14.157 35.6503L26.7396 21.2687C27.0671 20.8932 27.0272 20.326 26.6557 19.9984C26.2842 19.6708 25.717 19.7107 25.3855 20.0823L14.3807 32.6661L14.3807 0.898848C14.3807 0.399488 13.9773 0 13.4819 0C12.9866 0 12.5832 0.399488 12.5832 0.898848L12.5832 32.6661L1.5744 20.0823Z" fill="black"/>
</svg>
