<svg width="23" height="25" viewBox="0 0 23 25" fill="none" xmlns="http://www.w3.org/2000/svg">
<path d="M12.4716 18.1536V0.660647C12.4716 0.295115 12.1792 0.00268848 11.8136 0.00268848C11.448 0.00268848 11.1556 0.295115 11.1556 0.660647V18.1536L4.38229 11.381C4.12493 11.1237 3.70967 11.1237 3.45231 11.381C3.19494 11.6383 3.19494 12.0536 3.45231 12.3109L11.3486 20.2064C11.606 20.4637 12.0212 20.4637 12.2786 20.2064L20.1749 12.3109C20.4323 12.0536 20.4323 11.6383 20.1749 11.381C19.9175 11.1237 19.5023 11.1237 19.2449 11.381L12.4716 18.1536Z" fill="black"/>
<path d="M0.62739 24.343C0.62739 23.9775 0.919845 23.6851 1.28541 23.6851H22.3422C22.7078 23.6851 23.0002 23.9775 23.0002 24.343C23.0002 24.7086 22.7078 25.001 22.3422 25.001H1.28541C0.919845 25.001 0.62739 24.7086 0.62739 24.343Z" fill="black"/>
</svg>
