<svg width="160" height="81" viewBox="0 0 160 81" fill="none" xmlns="http://www.w3.org/2000/svg">
<path d="M63.3708 18.9805V58.249C63.3708 61.6016 61.5937 64.696 58.7015 66.3723L36.3482 79.3408C33.4603 81.0171 29.9017 81.0171 27.0096 79.3408L4.66493 66.3767C1.77712 64.7004 0 61.606 0 58.2534V43.4905L27.0096 59.1638C29.8974 60.8401 33.456 60.8401 36.3482 59.1638L52.7996 49.618H52.8039L58.0438 46.5761L47.4856 40.4486H47.4813L31.6789 49.618L21.1163 43.4905V31.2355L31.6789 37.363L63.3621 18.9805H63.3664H63.3708Z" fill="white"/>
<path d="M42.2457 18.981L21.1206 31.2317V31.236L0.00427246 43.4867V18.981L10.5581 25.1085L31.6831 12.8535L42.2457 18.981Z" fill="white"/>
<path d="M72.2421 34.8841C70.8236 33.3466 70.1124 31.3807 70.1124 29.0063C70.1124 26.6319 70.8236 24.69 72.2186 23.1525C73.6371 21.5949 75.4564 20.8262 77.6962 20.8262C80.3565 20.8262 82.5098 21.9553 84.1484 24.1935L82.7967 25.3707C81.6414 23.653 79.7356 22.66 77.6962 22.66C76.0105 22.66 74.6352 23.2486 73.5703 24.4458C72.529 25.643 71.9946 27.1565 71.9946 29.0103C71.9946 30.8641 72.5251 32.3777 73.5899 33.5748C74.6548 34.772 76.0537 35.3606 77.7591 35.3606C79.9557 35.3606 81.9047 34.3196 83.1503 32.5138L84.502 33.6429C82.8163 36.0173 80.5765 37.1904 77.7591 37.1904C75.4957 37.1904 73.6567 36.4217 72.2382 34.8841H72.2421Z" fill="#0C0C0C"/>
<path d="M96.8878 36.919H95.092V27.1332H88.4827V36.919H86.6869V25.4355H96.8878V36.915V36.919Z" fill="#0C0C0C"/>
<path d="M101.367 32.077C101.654 34.087 103.273 35.5124 105.403 35.5124C106.888 35.5124 108.153 34.9478 109.195 33.8187L110.283 35.0159C109.085 36.4613 107.446 37.1861 105.383 37.1861C103.654 37.1861 102.255 36.6215 101.19 35.5124C100.126 34.4033 99.5951 32.9579 99.5951 31.1721C99.5951 29.3863 100.126 27.9849 101.171 26.8558C102.236 25.7267 103.587 25.1621 105.25 25.1621C107.069 25.1621 108.511 25.8388 109.576 27.1961C110.664 28.5295 111.061 30.1551 110.794 32.077H101.367ZM109.128 30.4954C108.884 28.3253 107.375 26.8358 105.246 26.8358C104.204 26.8358 103.34 27.1761 102.605 27.8528C101.894 28.5295 101.473 29.4103 101.363 30.4954H109.124H109.128Z" fill="#0C0C0C"/>
<path d="M120.893 36.919L116.877 31.8099H115.215V36.919H113.419V25.4355H115.215V30.1362H116.944L120.669 25.4355H122.842L118.429 31.0171L123.109 36.915H120.893V36.919Z" fill="#0C0C0C"/>
<path d="M134.253 25.4355V27.1292H130.17V36.915H128.375V27.1332H124.272V25.4396H134.253V25.4355Z" fill="#0C0C0C"/>
<path d="M146.529 26.8558C147.594 27.9649 148.124 29.4103 148.124 31.1721C148.124 32.9338 147.594 34.3793 146.529 35.5124C145.487 36.6215 144.132 37.1861 142.513 37.1861C140.65 37.1861 139.208 36.4854 138.167 35.0599V42.111H136.371V25.4304H138.124V27.3523C139.212 25.8828 140.674 25.1621 142.517 25.1621C144.136 25.1621 145.487 25.7267 146.533 26.8558H146.529ZM139.275 34.2672C140.053 35.0599 141.027 35.4643 142.226 35.4643C143.424 35.4643 144.399 35.0559 145.177 34.2672C145.955 33.4784 146.328 32.4373 146.328 31.1721C146.328 29.9068 145.951 28.8658 145.177 28.077C144.399 27.2882 143.424 26.8798 142.226 26.8798C141.027 26.8798 140.053 27.2882 139.275 28.077C138.497 28.8698 138.12 29.9068 138.12 31.1721C138.12 32.4373 138.497 33.4544 139.275 34.2672Z" fill="#0C0C0C"/>
<path d="M83.4647 56.5365H81.6257V42.5266H72.9966V56.5365H71.134V40.7168H83.4647V56.5365Z" fill="#0C0C0C"/>
<path d="M96.2119 49.1453V56.5366H94.4829L94.4593 54.7268C93.5713 55.924 91.9759 56.6928 90.2234 56.6928C87.8067 56.6928 86.1878 55.2914 86.1878 53.1453C86.1878 50.819 88.0071 49.3255 90.8246 49.3255C92.0427 49.3255 93.2412 49.5497 94.4397 50.0021V49.1653C94.4397 47.3795 93.4416 46.5667 91.245 46.5667C90.0898 46.5667 88.848 46.883 87.5395 47.5397L87.0091 46.0262C88.518 45.2574 89.9797 44.873 91.3786 44.873C94.4829 44.873 96.2119 46.4106 96.2119 49.1453ZM93.3512 54.1182C94.0821 53.4616 94.4593 52.6488 94.4593 51.6758V51.5397C93.1508 51.1112 91.9995 50.883 91.021 50.883C89.0917 50.883 87.9836 51.6958 87.9836 53.0532C87.9836 54.3184 88.9384 55.0872 90.5574 55.0872C91.689 55.0872 92.6203 54.7709 93.3512 54.1142V54.1182Z" fill="#0C0C0C"/>
<path d="M107.041 56.5321L103.026 51.4231H101.363V56.5321H99.5676V45.0527H101.363V49.7534H103.092L106.817 45.0527H108.99L104.578 50.6343L109.258 56.5321H107.041Z" fill="#0C0C0C"/>
</svg>
