<svg width="356" height="178" viewBox="0 0 356 178" fill="none" xmlns="http://www.w3.org/2000/svg">
<path d="M141 40.9009V128.273C141 135.733 137.046 142.618 130.611 146.348L80.8746 175.203C74.4492 178.932 66.5314 178.932 60.0963 175.203L10.3795 146.358C3.95409 142.628 0 135.743 0 128.283V95.4357L60.0963 130.309C66.5217 134.039 74.4396 134.039 80.8746 130.309L117.479 109.069H117.489L129.147 102.301L105.656 88.6675H105.646L70.4855 109.069L46.9839 95.4357V68.1683L70.4855 81.802L140.981 40.9009H140.99H141Z" fill="#52DA7B"/>
<path d="M93.9969 40.9013L46.9936 68.1589V68.1687L0.00976562 95.4263V40.9013L23.492 54.535L70.4952 27.2676L93.9969 40.9013Z" fill="#52DA7B"/>
<path d="M176.887 76.279C173.632 72.858 172 68.4837 172 63.2008C172 57.9178 173.632 53.597 176.833 50.176C180.088 46.7105 184.262 45 189.401 45C195.505 45 200.446 47.5123 204.206 52.4923L201.105 55.1116C198.454 51.2897 194.081 49.0803 189.401 49.0803C185.533 49.0803 182.378 50.3899 179.934 53.0536C177.545 55.7174 176.319 59.0849 176.319 63.2097C176.319 67.3345 177.536 70.702 179.979 73.3658C182.423 76.0295 185.633 77.3391 189.546 77.3391C194.586 77.3391 199.058 75.0228 201.916 71.0049L205.018 73.5172C201.15 78.8002 196.01 81.4105 189.546 81.4105C184.352 81.4105 180.133 79.7 176.878 76.279H176.887Z" fill="#1A1A1A"/>
<path d="M233.437 80.8045H229.316V59.0313H214.151V80.8045H210.03V55.2539H233.437V80.7956V80.8045Z" fill="#1A1A1A"/>
<path d="M243.716 70.0428C244.374 74.5151 248.089 77.6866 252.975 77.6866C256.384 77.6866 259.287 76.4305 261.676 73.9182L264.174 76.5819C261.424 79.798 257.664 81.4105 252.93 81.4105C248.963 81.4105 245.753 80.1544 243.31 77.6866C240.867 75.2189 239.649 72.0028 239.649 68.0294C239.649 64.0561 240.867 60.938 243.265 58.4257C245.708 55.9134 248.81 54.6572 252.624 54.6572C256.798 54.6572 260.107 56.1628 262.551 59.1829C265.048 62.1496 265.959 65.7666 265.346 70.0428H243.716ZM261.523 66.5238C260.964 61.6952 257.502 58.3811 252.615 58.3811C250.226 58.3811 248.242 59.1384 246.556 60.644C244.924 62.1496 243.959 64.1095 243.707 66.5238H261.514H261.523Z" fill="#1A1A1A"/>
<path d="M288.517 80.8045L279.302 69.4368H275.489V80.8045H271.368V55.2539H275.489V65.7129H279.456L288.003 55.2539H292.989L282.864 67.6729L293.602 80.7956H288.517V80.8045Z" fill="#1A1A1A"/>
<path d="M319.173 55.2539V59.0224H309.805V80.7956H305.684V59.0313H296.271V55.2628H319.173V55.2539Z" fill="#1A1A1A"/>
<path d="M347.339 58.4257C349.783 60.8934 351 64.1095 351 68.0294C351 71.9493 349.783 75.1654 347.339 77.6866C344.95 80.1544 341.839 81.4105 338.125 81.4105C333.851 81.4105 330.542 79.8515 328.153 76.6799V92.3684H324.032V55.2541H328.053V59.5304C330.551 56.2608 333.905 54.6572 338.134 54.6572C341.848 54.6572 344.95 55.9134 347.348 58.4257H347.339ZM330.695 74.916C332.48 76.6799 334.717 77.5797 337.466 77.5797C340.216 77.5797 342.452 76.671 344.238 74.916C346.023 73.1609 346.879 70.8446 346.879 68.0294C346.879 65.2142 346.014 62.8979 344.238 61.1429C342.452 59.3878 340.216 58.4791 337.466 58.4791C334.717 58.4791 332.48 59.3878 330.695 61.1429C328.91 62.9068 328.044 65.2142 328.044 68.0294C328.044 70.8446 328.91 73.1075 330.695 74.916Z" fill="#1A1A1A"/>
<path d="M202.637 124.458H198.417V93.2861H178.617V124.458H174.344V89.2593H202.637V124.458Z" fill="#1A1A1A"/>
<path d="M231.886 108.012V124.458H227.919L227.865 120.431C225.827 123.095 222.167 124.805 218.145 124.805C212.6 124.805 208.886 121.687 208.886 116.912C208.886 111.736 213.06 108.413 219.525 108.413C222.32 108.413 225.07 108.912 227.82 109.919V108.057C227.82 104.083 225.53 102.275 220.49 102.275C217.839 102.275 214.99 102.979 211.987 104.44L210.77 101.072C214.232 99.3616 217.586 98.5063 220.796 98.5063C227.919 98.5063 231.886 101.927 231.886 108.012ZM225.322 119.077C226.999 117.616 227.865 115.807 227.865 113.642V113.34C224.863 112.386 222.221 111.879 219.976 111.879C215.549 111.879 213.006 113.687 213.006 116.707C213.006 119.522 215.197 121.233 218.912 121.233C221.509 121.233 223.645 120.529 225.322 119.068V119.077Z" fill="#1A1A1A"/>
<path d="M256.735 124.458L247.52 113.09H243.706V124.458H239.586V98.9165H243.706V109.376H247.674L256.221 98.9165H261.207L251.082 111.335L261.82 124.458H256.735Z" fill="#1A1A1A"/>
</svg>
