<svg viewBox="0 0 398 426" fill="none" xmlns="http://www.w3.org/2000/svg">
  <path d="M398 38.4844V285.11C398 306.167 386.839 325.601 368.675 336.129L228.284 417.577C210.148 428.105 187.798 428.105 169.634 417.577L29.2981 336.156C11.1612 325.628 0 306.194 0 285.138V192.419L169.634 290.856C187.77 301.384 210.12 301.384 228.284 290.856L331.607 230.903H331.635L364.544 211.799L298.233 173.315H298.206L198.959 230.903L132.621 192.419V115.452L198.959 153.936L397.945 38.4844H397.973H398Z" fill="#52DA7B" />
  <path d="M265.32 38.4838L132.645 115.424V115.451L0.0234375 192.391V38.4838L66.3066 76.9676L198.982 0L265.32 38.4838Z" fill="#52DA7B" />
</svg>