<svg width="160" height="80" viewBox="0 0 160 80" fill="none" xmlns="http://www.w3.org/2000/svg">
<path d="M63.3708 18.3813V57.6499C63.3708 61.0025 61.5937 64.0969 58.7015 65.7732L36.3482 78.7417C33.4603 80.418 29.9017 80.418 27.0096 78.7417L4.66493 65.7776C1.77712 64.1013 0 61.0069 0 57.6543V42.8914L27.0096 58.5647C29.8974 60.241 33.456 60.241 36.3482 58.5647L52.7996 49.0189H52.8039L58.0438 45.977L47.4856 39.8495H47.4813L31.6789 49.0189L21.1163 42.8914V30.6364L31.6789 36.7639L63.3621 18.3813H63.3664H63.3708Z" fill="#52DA7B"/>
<path d="M42.2457 18.3818L21.1206 30.6324V30.6368L0.00427246 42.8874V18.3818L10.5581 24.5093L31.6831 12.2543L42.2457 18.3818Z" fill="#52DA7B"/>
<path d="M79.4996 34.2809C78.0367 32.7433 77.3033 30.7774 77.3033 28.403C77.3033 26.0287 78.0367 24.0867 79.4753 22.5492C80.9382 20.9917 82.8144 20.2229 85.1241 20.2229C87.8675 20.2229 90.0882 21.352 91.7779 23.5902L90.384 24.7674C89.1926 23.0497 87.2273 22.0567 85.1241 22.0567C83.3857 22.0567 81.9674 22.6453 80.8693 23.8425C79.7954 25.0397 79.2443 26.5532 79.2443 28.407C79.2443 30.2609 79.7914 31.7744 80.8895 32.9716C81.9877 34.1688 83.4303 34.7573 85.189 34.7573C87.4542 34.7573 89.4641 33.7163 90.7487 31.9105L92.1426 33.0396C90.4042 35.414 88.0944 36.5872 85.189 36.5872C82.8549 36.5872 80.9584 35.8184 79.4956 34.2809H79.4996Z" fill="white"/>
<path d="M104.915 36.3165H103.064V26.5308H96.2476V36.3165H94.3958V24.8331H104.915V36.3125V36.3165Z" fill="white"/>
<path d="M109.535 31.4776C109.831 33.4876 111.5 34.913 113.697 34.913C115.228 34.913 116.533 34.3485 117.607 33.2193L118.729 34.4165C117.493 35.862 115.804 36.5867 113.676 36.5867C111.893 36.5867 110.451 36.0221 109.352 34.913C108.254 33.8039 107.707 32.3585 107.707 30.5727C107.707 28.7869 108.254 27.3855 109.332 26.2564C110.43 25.1273 111.824 24.5627 113.538 24.5627C115.415 24.5627 116.902 25.2394 118 26.5968C119.122 27.9301 119.532 29.5557 119.256 31.4776H109.535ZM117.538 29.896C117.287 27.7259 115.731 26.2364 113.534 26.2364C112.461 26.2364 111.569 26.5767 110.811 27.2534C110.078 27.9301 109.644 28.811 109.531 29.896H117.534H117.538Z" fill="white"/>
<path d="M129.671 36.3165L125.529 31.2075H123.815V36.3165H121.963V24.8331H123.815V29.5338H125.598L129.44 24.8331H131.68L127.13 30.4147L131.956 36.3125H129.671V36.3165Z" fill="white"/>
<path d="M143.448 24.8331V26.5268H139.238V36.3125H137.386V26.5308H133.156V24.8371H143.448V24.8331Z" fill="white"/>
<path d="M156.107 26.2564C157.206 27.3655 157.753 28.811 157.753 30.5727C157.753 32.3345 157.206 33.7799 156.107 34.913C155.034 36.0221 153.636 36.5867 151.966 36.5867C150.045 36.5867 148.558 35.886 147.484 34.4606V41.5116H145.632V24.831H147.44V26.7529C148.562 25.2835 150.07 24.5627 151.97 24.5627C153.64 24.5627 155.034 25.1273 156.112 26.2564H156.107ZM148.627 33.6678C149.429 34.4606 150.434 34.865 151.67 34.865C152.906 34.865 153.911 34.4566 154.713 33.6678C155.516 32.879 155.901 31.838 155.901 30.5727C155.901 29.3075 155.512 28.2664 154.713 27.4776C153.911 26.6889 152.906 26.2805 151.67 26.2805C150.434 26.2805 149.429 26.6889 148.627 27.4776C147.825 28.2704 147.436 29.3075 147.436 30.5727C147.436 31.838 147.825 32.855 148.627 33.6678Z" fill="white"/>
<path d="M91.0729 55.9337H89.1764V41.9238H80.2776V55.9337H78.3569V40.114H91.0729V55.9337Z" fill="white"/>
<path d="M104.218 48.5436V55.935H102.435L102.411 54.1252C101.495 55.3223 99.8501 56.0911 98.0428 56.0911C95.5507 56.0911 93.8811 54.6897 93.8811 52.5436C93.8811 50.2173 95.7573 48.7238 98.6628 48.7238C99.919 48.7238 101.155 48.948 102.391 49.4005V48.5636C102.391 46.7779 101.362 45.965 99.0964 45.965C97.905 45.965 96.6245 46.2814 95.2751 46.938L94.7281 45.4245C96.2841 44.6557 97.7916 44.2714 99.2342 44.2714C102.435 44.2714 104.218 45.8089 104.218 48.5436ZM101.268 53.5166C102.022 52.8599 102.411 52.0471 102.411 51.0741V50.938C101.062 50.5096 99.8744 50.2813 98.8654 50.2813C96.8758 50.2813 95.733 51.0941 95.733 52.4515C95.733 53.7167 96.7177 54.4855 98.3872 54.4855C99.5543 54.4855 100.515 54.1692 101.268 53.5125V53.5166Z" fill="white"/>
<path d="M115.386 55.9334L111.245 50.8243H109.531V55.9334H107.679V44.454H109.531V49.1547H111.314L115.155 44.454H117.396L112.846 50.0355L117.672 55.9334H115.386Z" fill="white"/>
</svg>
