<svg width="17" height="13" viewBox="0 0 17 13" fill="none" xmlns="http://www.w3.org/2000/svg">
<path fill-rule="evenodd" clip-rule="evenodd" d="M0.756785 0.323916C0.393744 0.546584 0.152344 0.94514 0.152344 1.4017V11.5059C0.152344 12.2039 0.71749 12.769 1.4155 12.769H14.8892C15.5872 12.769 16.1523 12.2039 16.1523 11.5059V1.4017C16.1523 0.94514 15.9109 0.546584 15.5479 0.323916L15.473 0.226616L15.43 0.260297C15.2653 0.181708 15.0819 0.138672 14.8892 0.138672H1.4155C1.22275 0.138672 1.03746 0.181708 0.874657 0.260297L0.83162 0.226616L0.756785 0.323916ZM0.994449 1.42041V11.5059C0.994449 11.7398 1.18345 11.927 1.4155 11.927H14.8892C15.1212 11.927 15.3102 11.7398 15.3102 11.5059V1.42041L8.41057 6.78689C8.25899 6.90477 8.04565 6.90477 7.89407 6.78689L0.994449 1.42041ZM14.5037 0.980692H1.80096L8.15234 5.92054L14.5037 0.980692Z" fill="#0C0C0C"/>
</svg>
