<svg width="15" height="16" viewBox="0 0 15 16" fill="none" xmlns="http://www.w3.org/2000/svg">
<path fill-rule="evenodd" clip-rule="evenodd" d="M2.77924 1.54216C2.0647 1.30526 1.29777 1.72663 1.11525 2.45481C0.678366 4.20438 0.810384 6.03163 1.68026 7.55789C2.38315 8.79288 3.31517 10.2085 4.35203 11.2473C5.39084 12.2862 6.80633 13.2144 8.04125 13.9193C9.56547 14.7892 11.3946 14.9212 13.144 14.4843C13.8741 14.3018 14.2954 13.5367 14.0566 12.8202L13.8624 12.2338C13.4741 11.0687 12.0819 10.5891 11.0567 11.2706L10.0859 11.9192C10.014 11.9677 9.93052 11.993 9.84314 11.993H9.82565C9.82565 11.993 9.81208 11.993 9.80237 11.993C9.7849 11.993 9.76158 11.991 9.7344 11.9872C9.68003 11.9794 9.60816 11.9677 9.51885 11.9444C9.34021 11.9017 9.09365 11.8163 8.77715 11.657C8.1461 11.3425 7.23933 10.7308 6.0549 9.54436C4.87047 8.35985 4.25881 7.45303 3.94231 6.82194C3.78504 6.50543 3.69961 6.26076 3.65495 6.08017C3.63359 5.99085 3.62 5.919 3.61224 5.86463C3.60835 5.83939 3.6064 5.81609 3.6064 5.79861C3.6064 5.79084 3.6064 5.78113 3.6064 5.77531V5.75977C3.6064 5.75977 3.6064 5.75977 4.04329 5.75977H3.6064C3.6064 5.67433 3.63167 5.59083 3.68021 5.51899L4.32676 4.54808C5.0083 3.52475 4.53065 2.13247 3.36369 1.74217L2.7773 1.54605L2.77924 1.54216ZM4.50155 5.85686L5.0549 5.02771C6.05681 3.52475 5.35586 1.48002 3.64134 0.907191L3.05499 0.711069C1.85697 0.312999 0.573494 1.01788 0.268648 2.24122C-0.21095 4.16167 -0.0808809 6.22969 0.922974 7.98897C1.6414 9.24921 2.61812 10.7444 3.73653 11.8629C4.85689 12.9833 6.35004 13.9581 7.6102 14.6766C9.36937 15.6805 11.4372 15.8106 13.3576 15.331C14.5828 15.0261 15.2876 13.7426 14.8877 12.5445L14.6915 11.958C14.1207 10.2454 12.0761 9.54241 10.5732 10.5444L9.74411 11.0978C9.74411 11.0978 9.73634 11.0978 9.7344 11.0939C9.62372 11.0667 9.43539 11.0046 9.17132 10.8745C8.64318 10.6104 7.81018 10.0609 6.67623 8.92686C5.54034 7.79285 4.99278 6.95981 4.72871 6.43164C4.59667 6.16755 4.53456 5.9792 4.50738 5.86851C4.50738 5.86463 4.50543 5.86075 4.50349 5.85686H4.50155Z" fill="#0C0C0C"/>
</svg>
