<svg width="40" height="40" viewBox="0 0 40 40" fill="none" xmlns="http://www.w3.org/2000/svg">
<path fill-rule="evenodd" clip-rule="evenodd" d="M40.0001 20C40.0001 31.0444 31.0481 40 19.9981 40C8.94811 40 -0.00390625 31.0444 -0.00390625 20C-0.00390625 8.95556 8.95255 0 19.9981 0C31.0437 0 40.0001 8.95556 40.0001 20ZM20.9982 36.7511C21.2027 36.5867 21.456 36.3822 21.7405 36.1245C22.545 35.4133 23.6207 34.3333 24.6964 32.8978C26.7232 30.2 28.7457 26.2356 28.9768 21H20.9982V36.7511ZM22.9051 37.7644C31.1459 36.4267 37.5065 29.4978 37.9733 20.9956H30.977C30.7459 26.7644 28.519 31.1378 26.2965 34.0978C25.1275 35.6578 23.9541 36.8356 23.0651 37.6178C23.0117 37.6667 22.954 37.7155 22.9006 37.7644H22.9051ZM30.977 18.9956H37.9733C37.5065 10.4978 31.1459 3.56445 22.9051 2.22667C22.9584 2.27556 23.0162 2.32001 23.0695 2.37335C23.9585 3.16001 25.132 4.33334 26.301 5.89334C28.5234 8.85334 30.7459 13.2222 30.9814 18.9956H30.977ZM28.9768 18.9956H20.9982V3.24444C21.2027 3.40888 21.456 3.61334 21.7405 3.87112C22.545 4.58223 23.6207 5.66221 24.6964 7.09776C26.7232 9.79554 28.7457 13.76 28.9768 18.9956ZM18.998 36.7467C18.7935 36.5822 18.5446 36.3778 18.2557 36.12C17.4512 35.4089 16.3755 34.3289 15.2999 32.8933C13.273 30.1956 11.2506 26.2311 11.0239 20.9956H19.0025V36.7467H18.998ZM17.0911 37.76C17.0378 37.7111 16.9845 37.6667 16.9267 37.6133C16.0422 36.8267 14.8687 35.6533 13.6953 34.0933C11.4728 31.1333 9.25036 26.7644 9.01478 20.9911H2.01851C2.48523 29.4889 8.85032 36.4222 17.0867 37.76H17.0911ZM11.0194 18.9911C11.2506 13.7555 13.2685 9.79112 15.2954 7.09334C16.3711 5.65334 17.4467 4.57778 18.2513 3.86667C18.5402 3.60889 18.7891 3.40443 18.9936 3.23999V18.9911H11.015H11.0194ZM9.01922 18.9911H2.02296C2.48968 10.4933 8.85476 3.56 17.0911 2.22222C17.0378 2.27111 16.9845 2.31556 16.9267 2.3689C16.0422 3.15556 14.8687 4.32889 13.6953 5.88889C11.4728 8.84889 9.25036 13.2178 9.01478 18.9911H9.01922Z" fill="#52DA7B"/>
</svg>
