<svg width="512" height="512" viewBox="0 0 512 512" fill="none" xmlns="http://www.w3.org/2000/svg">
<path d="M429.82 309.04C429.24 310.78 413 311.88 413 310.18C413 309.62 411.83 307.77 410.41 306.08L407.82 303H213.49C106.61 303 18.45 302.73 17.58 302.39C16.17 301.85 16 296.83 16 256C16 215.17 16.17 210.15 17.58 209.61C19.65 208.81 492.35 208.81 494.42 209.61C495.83 210.15 496 215.17 496 256C496 296.83 495.83 301.85 494.42 302.39C493.55 302.73 479.8 303 463.87 303C434.96 303 434.91 303 432.6 305.31C431.33 306.58 430.08 308.26 429.82 309.04ZM0 0H0.02V512H0V0Z" fill="#103A98"/>
<path d="M429.82 199.04C429.24 200.78 413 201.88 413 200.18C413 199.62 411.83 197.77 410.41 196.08L407.82 193H213.49C106.61 193 18.45 192.73 17.58 192.39C16.17 191.85 16 186.83 16 146C16 105.17 16.17 100.15 17.58 99.61C19.65 98.81 492.35 98.81 494.42 99.61C495.83 100.15 496 105.17 496 146C496 186.83 495.83 191.85 494.42 192.39C493.55 192.73 479.8 193 463.87 193C434.96 193 434.91 193 432.6 195.31C431.33 196.58 430.08 198.26 429.82 199.04ZM0 -110H0.02V402H0V-110Z" fill="white"/>
<path d="M0.0495313 451.75L0.0195312 490.33V21.67L0.0495313 60.25C0.109531 119.43 0.139531 120.4 1.88953 115C5.69953 103.22 12.5795 94.31 22.1795 88.72C23.2595 88.09 24.0695 87.53 24.9095 87.04C31.8495 82.95 41.2095 82.96 220.85 83.19C232.83 83.21 245.57 83.22 259.12 83.24L479.6 83.5L487.14 87.23C498.68 92.93 507.19 103.1 510.4 115.02C511.74 120.02 511.87 115.17 511.93 60.25L512 0V512L511.93 451.75C511.87 396.83 511.74 391.98 510.4 396.98C507.19 408.9 498.68 419.07 487.14 424.77L479.6 428.5L258.42 428.76C45.2596 429.01 37.0195 428.95 31.2595 427.16C16.9295 422.7 6.82953 412.33 1.87953 397C0.139531 391.6 0.109531 392.61 0.0495313 451.75ZM429.82 309.04C430.08 308.26 431.33 306.58 432.6 305.31C434.91 303 434.96 303 463.87 303C479.8 303 493.55 302.73 494.42 302.39C495.83 301.85 496 296.83 496 256C496 215.17 495.83 210.15 494.42 209.61C492.35 208.81 19.6495 208.81 17.5795 209.61C16.1695 210.15 15.9995 215.17 15.9995 256C15.9995 296.83 16.1695 301.85 17.5795 302.39C18.4495 302.73 106.61 303 213.49 303H407.82L410.41 306.08C411.83 307.77 413 309.62 413 310.18C413 310.79 415.1 311.04 417.81 311.03C413.65 311.13 412.96 311.54 412.49 313.03C412.13 314.15 410.89 315.95 409.73 317.03C407.65 318.97 405.12 319 212.87 319C105.76 319 17.8795 319.38 17.5895 319.85C17.2995 320.32 17.0095 336.67 16.9495 356.18C16.8495 386.76 17.0495 392.19 18.4495 395.53C21.9095 403.81 28.8795 410.05 36.7595 411.92C38.8895 412.43 134.14 412.74 258 412.66L475.5 412.5L480.34 410.03C486.05 407.11 490.54 402.3 493.23 396.21C495.04 392.12 495.16 389.44 495.05 356.26C494.99 336.7 494.7 320.32 494.41 319.85C494.12 319.38 480.49 319 464.12 319C434.51 319 434.34 318.99 432.32 316.75C431.21 315.51 430.02 313.71 429.68 312.75C429.16 311.28 427.78 311 421.1 311C420.31 311 419.59 311 418.95 311.01C423.65 310.88 429.48 310.07 429.82 309.04ZM17.0395 156.75L16.9995 193H496.11L495.81 156.75C495.51 121.11 495.46 120.41 493.14 115.27C491.84 112.4 488.83 108.26 486.46 106.07C485.47 105.16 484.87 104.36 484.16 103.67C479.35 98.93 469.86 98.95 301.87 99.18C287.3 99.2 271.53 99.22 254.46 99.24L37.4995 99.5L31.7895 102.3C25.5995 105.34 20.5395 110.83 18.3995 116.83C17.4095 119.59 17.0795 129.46 17.0395 156.75Z" fill="#131A21"/>
<path d="M417.812 311.03C418.182 311.03 418.562 311.02 418.952 311.01C419.592 311 420.312 311 421.102 311C427.782 311 429.162 311.28 429.682 312.75C430.022 313.71 431.212 315.51 432.322 316.75C434.342 318.99 434.512 319 464.122 319C480.492 319 494.122 319.38 494.412 319.85C494.702 320.32 494.992 336.7 495.052 356.26C495.162 389.44 495.042 392.12 493.232 396.21C490.542 402.3 486.052 407.11 480.342 410.03L475.502 412.5L258.002 412.66C134.142 412.74 38.8916 412.43 36.7616 411.92C28.8816 410.05 21.9116 403.81 18.4516 395.53C17.0516 392.19 16.8516 386.76 16.9516 356.18C17.0116 336.67 17.3016 320.32 17.5916 319.85C17.8816 319.38 105.762 319 212.872 319C405.122 319 407.652 318.97 409.732 317.03C410.892 315.95 412.132 314.15 412.492 313.03C412.962 311.54 413.652 311.13 417.812 311.03Z" fill="#EA1F34"/>
</svg>
