<svg width="512" height="335" viewBox="0 0 512 335" fill="none" xmlns="http://www.w3.org/2000/svg">
<g clip-path="url(#clip0_84_2636)">
<path d="M0.04 316.5L0 424V-88L0.09 -33.75C0.13 -3.91 0.52 19.37 0.93 17.99C3.02 11.14 7.43 5.87 14 2.36C17.38 0.560001 25.4 0.489997 251 0.199997C379.42 0.039997 487.32 0.179999 490.76 0.529999C499.21 1.38 505.4 5.52 509.21 12.86L512 18.23V317.61L509.36 322.9C506.45 328.75 500.91 333.41 494.96 335.01C492.49 335.68 410.77 335.93 254.36 335.76L17.5 335.5L13.5 333.34C8.26 330.52 4.59 326.55 2.08 321L0.04 316.5ZM15 21.11V183H256V14.98L137.91 15.24L19.83 15.5L15 21.11ZM15 245.25V275H497V244H283.43C134.81 244 69.27 243.68 67.89 242.94C63.09 240.37 63.54 232.44 68.61 230.13C70.43 229.3 127.91 229 284.07 229H497.05L496.78 213.75L496.5 198.5L258 198.23C126.82 198.08 18.49 198.2 17.25 198.5C15.04 199.03 15 199.31 15 214.02V229H28.55C41.59 229 42.18 229.09 44.55 231.45C47.67 234.58 47.79 239.19 44.81 241.96C42.89 243.75 41.31 244 31.94 244C26.06 244 19.84 244.28 18.12 244.62L15 245.25ZM20.02 319.72C22 320.72 70.23 320.93 257.34 320.74L492.17 320.5L494.59 317.69C496.86 315.05 497 314.16 497 302.44V290H15L15.01 301.75C15.03 314.47 15.91 317.63 20.02 319.72ZM272 61V92H497V61H487.45C478.65 61 477.72 60.81 475.45 58.55C474.1 57.2 473 54.93 473 53.5C473 52.07 474.1 49.8 475.45 48.45C477.72 46.19 478.65 46 487.45 46H497V33.42C497 20.86 497 20.84 494.08 17.92L491.15 15H272V46H451.09L453.55 48.45C454.9 49.8 456 52.07 456 53.5C456 54.93 454.9 57.2 453.55 58.55L451.09 61H272ZM272 153V184H497V153H272ZM272.67 137.33C273.03 137.7 323.66 138 385.17 138H497V107H272V121.83C272 129.99 272.3 136.97 272.67 137.33ZM44.55 40.55C43.2 41.9 40.92 43 39.5 43C36.24 43 32 38.86 32 35.68C32 31.77 35.63 28 39.4 28C46.16 28 49.34 35.75 44.55 40.55ZM92.55 40.55C91.2 41.9 88.93 43 87.5 43C84.24 43 80 38.86 80 35.68C80 31.77 83.63 28 87.4 28C94.16 28 97.34 35.75 92.55 40.55ZM92.93 168.37C90.22 171.81 85.79 171.89 82.45 168.55C79.62 165.71 79.42 164.01 81.46 160.07C83.84 155.48 88.08 154.7 92.37 158.07C95.61 160.62 95.83 164.68 92.93 168.37ZM140.93 136.37C138.22 139.81 133.79 139.89 130.45 136.55C127.62 133.71 127.42 132.01 129.46 128.07C131.84 123.48 136.08 122.7 140.37 126.07C143.61 128.62 143.83 132.68 140.93 136.37ZM188.96 168.81C183.55 174.62 173.43 167.7 177.14 160.73C179.82 155.7 184.07 154.7 188.37 158.07C191.65 160.66 191.93 165.63 188.96 168.81ZM164.69 152.83C161.62 155.71 157.51 155.6 154.45 152.55C151.73 149.83 151.43 147.95 153.16 144.68C155.82 139.7 160.09 138.71 164.37 142.07C167.81 144.78 167.96 149.75 164.69 152.83ZM116.69 152.83C113.62 155.71 109.51 155.6 106.45 152.55C103.73 149.83 103.43 147.95 105.16 144.68C107.82 139.7 112.09 138.71 116.37 142.07C119.81 144.78 119.96 149.75 116.69 152.83ZM140.69 168.83C137.62 171.71 133.51 171.6 130.45 168.55C127.73 165.83 127.43 163.95 129.16 160.68C131.82 155.7 136.09 154.71 140.37 158.07C143.81 160.78 143.96 165.75 140.69 168.83ZM44.55 168.55C39.39 173.7 31.07 169.56 32.42 162.52C33.59 156.45 39.51 154.25 44.37 158.07C47.81 160.78 47.89 165.21 44.55 168.55ZM68.55 152.55C63.39 157.7 55.07 153.56 56.42 146.52C57.59 140.45 63.51 138.25 68.37 142.07C71.81 144.78 71.89 149.21 68.55 152.55ZM68.55 56.55C67.2 57.9 64.93 59 63.5 59C62.08 59 59.8 57.9 58.45 56.55C57.1 55.2 56 52.93 56 51.5C56 48.01 60.16 44 63.78 44C67.38 44 71 47.69 71 51.36C71 52.93 69.95 55.14 68.55 56.55ZM92.55 72.55C91.2 73.9 88.93 75 87.5 75C86.07 75 83.8 73.9 82.45 72.55C81.1 71.2 80 68.93 80 67.5C80 64.01 84.16 60 87.78 60C91.38 60 95 63.69 95 67.36C95 68.93 93.95 71.14 92.55 72.55ZM116.55 56.55C112.1 60.99 105.63 58.74 104.39 52.32C103.9 49.75 104.27 48.64 106.34 46.57C109.6 43.3 113.9 43.2 116.83 46.31C119.71 49.38 119.6 53.49 116.55 56.55ZM44.55 72.55C43.2 73.9 40.92 75 39.5 75C38.08 75 35.8 73.9 34.45 72.55C33.1 71.2 32 68.93 32 67.5C32 64.24 36.14 60 39.32 60C46.06 60 49.3 67.79 44.55 72.55ZM44.55 104.55C43.2 105.9 40.92 107 39.5 107C38.08 107 35.8 105.9 34.45 104.55C33.1 103.2 32 100.93 32 99.5C32 96.24 36.14 92 39.32 92C46.06 92 49.3 99.79 44.55 104.55ZM68.55 88.55C67.2 89.9 64.93 91 63.5 91C62.08 91 59.8 89.9 58.45 88.55C57.1 87.2 56 84.93 56 83.5C56 80.24 60.14 76 63.32 76C70.06 76 73.3 83.79 68.55 88.55ZM44.55 136.55C43.2 137.9 40.92 139 39.5 139C38.08 139 35.8 137.9 34.45 136.55C33.1 135.2 32 132.93 32 131.5C32 128.24 36.14 124 39.32 124C46.06 124 49.3 131.79 44.55 136.55ZM68.55 120.55C67.2 121.9 64.93 123 63.5 123C62.08 123 59.8 121.9 58.45 120.55C57.1 119.2 56 116.93 56 115.5C56 112.24 60.14 108 63.32 108C70.06 108 73.3 115.79 68.55 120.55ZM188.93 136.37C183.87 142.8 173.29 135.95 177.14 128.73C179.88 123.59 185.23 122.48 188.83 126.31C191.56 129.23 191.6 132.97 188.93 136.37ZM140.55 104.55C134.47 110.62 125.47 103.79 129.44 96.11C130.26 94.53 131.65 92.96 132.54 92.62C140.33 89.63 146.4 98.69 140.55 104.55ZM188.55 104.55C182.47 110.62 173.47 103.79 177.44 96.11C178.26 94.53 179.65 92.96 180.54 92.62C188.33 89.63 194.4 98.69 188.55 104.55ZM116.55 88.55C113.38 91.71 109.58 91.67 106.34 88.43C104.27 86.36 103.9 85.25 104.39 82.68C105.59 76.46 111.45 74.2 116.37 78.07C119.81 80.78 119.89 85.21 116.55 88.55ZM92.55 104.55C89.38 107.71 85.58 107.67 82.34 104.43C80.27 102.36 79.9 101.25 80.39 98.68C81.59 92.46 87.45 90.2 92.37 94.07C95.81 96.78 95.89 101.21 92.55 104.55ZM116.55 120.55C113.38 123.71 109.58 123.67 106.34 120.43C104.27 118.36 103.9 117.25 104.39 114.68C105.59 108.46 111.45 106.2 116.37 110.07C119.81 112.78 119.89 117.21 116.55 120.55ZM92.55 136.55C89.38 139.71 85.58 139.67 82.34 136.43C80.27 134.36 79.9 133.25 80.39 130.68C81.59 124.46 87.45 122.2 92.37 126.07C95.81 128.78 95.89 133.21 92.55 136.55ZM164.55 88.55C161.38 91.71 157.58 91.67 154.34 88.43C152.27 86.36 151.9 85.25 152.39 82.68C153.59 76.46 159.45 74.2 164.37 78.07C167.81 80.78 167.89 85.21 164.55 88.55ZM164.55 120.55C161.38 123.71 157.58 123.67 154.34 120.43C152.27 118.36 151.9 117.25 152.39 114.68C153.59 108.46 159.45 106.2 164.37 110.07C167.81 112.78 167.89 117.21 164.55 120.55ZM212.78 121.44C211.56 122.3 209.41 123 208 123C203.66 123 201 120.38 201 116.12C201 109.05 208.28 105.48 212.83 110.31C215.82 113.5 215.79 119.33 212.78 121.44ZM236.78 137.44C235.56 138.3 233.41 139 232 139C227.66 139 225 136.38 225 132.12C225 125.05 232.28 121.48 236.83 126.31C239.82 129.5 239.79 135.33 236.78 137.44ZM236.78 169.44C235.56 170.3 233.41 171 232 171C227.66 171 225 168.38 225 164.12C225 157.05 232.28 153.48 236.83 158.31C239.82 161.5 239.79 167.33 236.78 169.44ZM164.55 56.55C159.71 61.38 152.6 58.37 152.6 51.5C152.6 48.78 153.24 47.23 154.91 45.87C162.25 39.93 171.22 49.87 164.55 56.55ZM140.55 72.55C135.71 77.38 128.6 74.37 128.6 67.5C128.6 64.78 129.24 63.23 130.91 61.87C138.25 55.93 147.22 65.87 140.55 72.55ZM212.78 153.44C211.56 154.3 209.41 155 208 155C201.29 155 198.32 146.87 203.31 142.17C206.22 139.45 208.99 139.42 212.37 142.07C215.88 144.84 216.11 151.11 212.78 153.44ZM211.32 89.85C208.23 91.48 205.55 91.28 203.17 89.25C198.28 85.07 201.49 76 207.86 76C211.47 76 215 79.75 214.98 83.56C214.97 87.06 214.23 88.31 211.32 89.85ZM212.37 56.93C209.27 59.36 207.5 59.46 203.75 57.43C201.12 56 200.52 54.32 200.95 49.5C201.19 46.7 204.69 44 208.07 44C214.54 44 217.5 52.89 212.37 56.93ZM140.55 40.55C137.62 43.47 134.4 43.65 131.05 41.07C127.7 38.5 127.62 32.53 130.91 29.87C138.25 23.93 147.22 33.87 140.55 40.55ZM188.55 40.55C185.62 43.47 182.4 43.65 179.05 41.07C175.7 38.5 175.62 32.53 178.91 29.87C186.25 23.93 195.22 33.87 188.55 40.55ZM188.55 72.55C187.2 73.9 185.06 74.99 183.8 74.98C180.93 74.95 177.42 72.2 176.55 69.3C175.79 66.73 178.17 61.53 180.54 60.62C188.33 57.63 194.4 66.69 188.55 72.55ZM236.54 105.38C233.31 107.5 230.04 107.38 227.25 105.06C222.47 101.07 225.87 92 232.14 92C238.32 92 241.62 102.05 236.54 105.38ZM236.69 40.83C233.78 43.55 231.01 43.58 227.63 40.93C222.37 36.79 225.31 28 231.96 28C238.31 28 241.4 36.4 236.69 40.83ZM236.1 73.28C232.33 75.51 230.84 75.45 227.63 72.93C222.47 68.86 225.46 60 232 60C238.78 60 241.83 69.9 236.1 73.28Z" fill="#030204"/>
<path d="M15.0017 21.11L19.8317 15.5L137.912 15.24L256.002 14.98V183H15.0017V21.11ZM44.5517 40.55C49.3417 35.75 46.1617 28 39.4017 28C35.6317 28 32.0017 31.77 32.0017 35.68C32.0017 38.86 36.2417 43 39.5017 43C40.9217 43 43.2017 41.9 44.5517 40.55ZM92.5517 40.55C97.3417 35.75 94.1617 28 87.4017 28C83.6317 28 80.0017 31.77 80.0017 35.68C80.0017 38.86 84.2417 43 87.5017 43C88.9317 43 91.2017 41.9 92.5517 40.55ZM92.9317 168.37C95.8317 164.68 95.6117 160.62 92.3717 158.07C88.0817 154.7 83.8417 155.48 81.4617 160.07C79.4217 164.01 79.6217 165.71 82.4517 168.55C85.7917 171.89 90.2217 171.81 92.9317 168.37ZM140.932 136.37C143.832 132.68 143.612 128.62 140.372 126.07C136.082 122.7 131.842 123.48 129.462 128.07C127.422 132.01 127.622 133.71 130.452 136.55C133.792 139.89 138.222 139.81 140.932 136.37ZM188.962 168.81C191.932 165.63 191.652 160.66 188.372 158.07C184.072 154.7 179.822 155.7 177.142 160.73C173.432 167.7 183.552 174.62 188.962 168.81ZM164.692 152.83C167.962 149.75 167.812 144.78 164.372 142.07C160.092 138.71 155.822 139.7 153.162 144.68C151.432 147.95 151.732 149.83 154.452 152.55C157.512 155.6 161.622 155.71 164.692 152.83ZM116.692 152.83C119.962 149.75 119.812 144.78 116.372 142.07C112.092 138.71 107.822 139.7 105.162 144.68C103.432 147.95 103.732 149.83 106.452 152.55C109.512 155.6 113.622 155.71 116.692 152.83ZM140.692 168.83C143.962 165.75 143.812 160.78 140.372 158.07C136.092 154.71 131.822 155.7 129.162 160.68C127.432 163.95 127.732 165.83 130.452 168.55C133.512 171.6 137.622 171.71 140.692 168.83ZM44.5517 168.55C47.8917 165.21 47.8117 160.78 44.3717 158.07C39.5117 154.25 33.5917 156.45 32.4217 162.52C31.0717 169.56 39.3917 173.7 44.5517 168.55ZM68.5517 152.55C71.8917 149.21 71.8117 144.78 68.3717 142.07C63.5117 138.25 57.5917 140.45 56.4217 146.52C55.0717 153.56 63.3917 157.7 68.5517 152.55ZM68.5517 56.55C69.9517 55.14 71.0017 52.93 71.0017 51.36C71.0017 47.69 67.3817 44 63.7817 44C60.1617 44 56.0017 48.01 56.0017 51.5C56.0017 52.93 57.1017 55.2 58.4517 56.55C59.8017 57.9 62.0817 59 63.5017 59C64.9317 59 67.2017 57.9 68.5517 56.55ZM92.5517 72.55C93.9517 71.14 95.0017 68.93 95.0017 67.36C95.0017 63.69 91.3817 60 87.7817 60C84.1617 60 80.0017 64.01 80.0017 67.5C80.0017 68.93 81.1017 71.2 82.4517 72.55C83.8017 73.9 86.0717 75 87.5017 75C88.9317 75 91.2017 73.9 92.5517 72.55ZM116.552 56.55C119.602 53.49 119.712 49.38 116.832 46.31C113.902 43.2 109.602 43.3 106.342 46.57C104.272 48.64 103.902 49.75 104.392 52.32C105.632 58.74 112.102 60.99 116.552 56.55ZM44.5517 72.55C49.3017 67.79 46.0617 60 39.3217 60C36.1417 60 32.0017 64.24 32.0017 67.5C32.0017 68.93 33.1017 71.2 34.4517 72.55C35.8017 73.9 38.0817 75 39.5017 75C40.9217 75 43.2017 73.9 44.5517 72.55ZM44.5517 104.55C49.3017 99.79 46.0617 92 39.3217 92C36.1417 92 32.0017 96.24 32.0017 99.5C32.0017 100.93 33.1017 103.2 34.4517 104.55C35.8017 105.9 38.0817 107 39.5017 107C40.9217 107 43.2017 105.9 44.5517 104.55ZM68.5517 88.55C73.3017 83.79 70.0617 76 63.3217 76C60.1417 76 56.0017 80.24 56.0017 83.5C56.0017 84.93 57.1017 87.2 58.4517 88.55C59.8017 89.9 62.0817 91 63.5017 91C64.9317 91 67.2017 89.9 68.5517 88.55ZM44.5517 136.55C49.3017 131.79 46.0617 124 39.3217 124C36.1417 124 32.0017 128.24 32.0017 131.5C32.0017 132.93 33.1017 135.2 34.4517 136.55C35.8017 137.9 38.0817 139 39.5017 139C40.9217 139 43.2017 137.9 44.5517 136.55ZM68.5517 120.55C73.3017 115.79 70.0617 108 63.3217 108C60.1417 108 56.0017 112.24 56.0017 115.5C56.0017 116.93 57.1017 119.2 58.4517 120.55C59.8017 121.9 62.0817 123 63.5017 123C64.9317 123 67.2017 121.9 68.5517 120.55ZM188.932 136.37C191.602 132.97 191.562 129.23 188.832 126.31C185.232 122.48 179.882 123.59 177.142 128.73C173.292 135.95 183.872 142.8 188.932 136.37ZM140.552 104.55C146.402 98.69 140.332 89.63 132.542 92.62C131.652 92.96 130.262 94.53 129.442 96.11C125.472 103.79 134.472 110.62 140.552 104.55ZM188.552 104.55C194.402 98.69 188.332 89.63 180.542 92.62C179.652 92.96 178.262 94.53 177.442 96.11C173.472 103.79 182.472 110.62 188.552 104.55ZM116.552 88.55C119.892 85.21 119.812 80.78 116.372 78.07C111.452 74.2 105.592 76.46 104.392 82.68C103.902 85.25 104.272 86.36 106.342 88.43C109.582 91.67 113.382 91.71 116.552 88.55ZM92.5517 104.55C95.8917 101.21 95.8117 96.78 92.3717 94.07C87.4517 90.2 81.5917 92.46 80.3917 98.68C79.9017 101.25 80.2717 102.36 82.3417 104.43C85.5817 107.67 89.3817 107.71 92.5517 104.55ZM116.552 120.55C119.892 117.21 119.812 112.78 116.372 110.07C111.452 106.2 105.592 108.46 104.392 114.68C103.902 117.25 104.272 118.36 106.342 120.43C109.582 123.67 113.382 123.71 116.552 120.55ZM92.5517 136.55C95.8917 133.21 95.8117 128.78 92.3717 126.07C87.4517 122.2 81.5917 124.46 80.3917 130.68C79.9017 133.25 80.2717 134.36 82.3417 136.43C85.5817 139.67 89.3817 139.71 92.5517 136.55ZM164.552 120.55C167.892 117.21 167.812 112.78 164.372 110.07C159.452 106.2 153.592 108.46 152.392 114.68C151.902 117.25 152.272 118.36 154.342 120.43C157.582 123.67 161.382 123.71 164.552 120.55ZM164.552 88.55C167.892 85.21 167.812 80.78 164.372 78.07C159.452 74.2 153.592 76.46 152.392 82.68C151.902 85.25 152.272 86.36 154.342 88.43C157.582 91.67 161.382 91.71 164.552 88.55ZM212.782 121.44C215.792 119.33 215.822 113.5 212.832 110.31C208.282 105.48 201.002 109.05 201.002 116.12C201.002 120.38 203.662 123 208.002 123C209.412 123 211.562 122.3 212.782 121.44ZM236.782 137.44C239.792 135.33 239.822 129.5 236.832 126.31C232.282 121.48 225.002 125.05 225.002 132.12C225.002 136.38 227.662 139 232.002 139C233.412 139 235.562 138.3 236.782 137.44ZM236.782 169.44C239.792 167.33 239.822 161.5 236.832 158.31C232.282 153.48 225.002 157.05 225.002 164.12C225.002 168.38 227.662 171 232.002 171C233.412 171 235.562 170.3 236.782 169.44ZM140.552 72.55C147.222 65.87 138.252 55.93 130.912 61.87C129.242 63.23 128.602 64.78 128.602 67.5C128.602 74.37 135.712 77.38 140.552 72.55ZM164.552 56.55C171.222 49.87 162.252 39.93 154.912 45.87C153.242 47.23 152.602 48.78 152.602 51.5C152.602 58.37 159.712 61.38 164.552 56.55ZM212.782 153.44C216.112 151.11 215.882 144.84 212.372 142.07C208.992 139.42 206.222 139.45 203.312 142.17C198.322 146.87 201.292 155 208.002 155C209.412 155 211.562 154.3 212.782 153.44ZM211.322 89.85C214.232 88.31 214.972 87.06 214.982 83.56C215.002 79.75 211.472 76 207.862 76C201.492 76 198.282 85.07 203.172 89.25C205.552 91.28 208.232 91.48 211.322 89.85ZM212.372 56.93C217.502 52.89 214.542 44 208.072 44C204.692 44 201.192 46.7 200.952 49.5C200.522 54.32 201.122 56 203.752 57.43C207.502 59.46 209.272 59.36 212.372 56.93ZM188.552 40.55C195.222 33.87 186.252 23.93 178.912 29.87C175.622 32.53 175.702 38.5 179.052 41.07C182.402 43.65 185.622 43.47 188.552 40.55ZM140.552 40.55C147.222 33.87 138.252 23.93 130.912 29.87C127.622 32.53 127.702 38.5 131.052 41.07C134.402 43.65 137.622 43.47 140.552 40.55ZM188.552 72.55C194.402 66.69 188.332 57.63 180.542 60.62C178.172 61.53 175.792 66.73 176.552 69.3C177.422 72.2 180.932 74.95 183.802 74.98C185.062 74.99 187.202 73.9 188.552 72.55ZM236.542 105.38C241.622 102.05 238.322 92 232.142 92C225.872 92 222.472 101.07 227.252 105.06C230.042 107.38 233.312 107.5 236.542 105.38ZM236.692 40.83C241.402 36.4 238.312 28 231.962 28C225.312 28 222.372 36.79 227.632 40.93C231.012 43.58 233.782 43.55 236.692 40.83ZM236.102 73.28C241.832 69.9 238.782 60 232.002 60C225.462 60 222.472 68.86 227.632 72.93C230.842 75.45 232.332 75.51 236.102 73.28ZM14.3917 2.18002L17.5017 0.500015L251.002 0.200012C33.5517 0.480012 18.2517 0.560016 14.3917 2.18002ZM0.761719 17.2L2.16172 14.5C2.60172 13.65 3.06172 12.83 3.55172 12.05C2.46172 13.88 1.58172 15.86 0.931719 17.99C0.881719 18.18 0.821719 17.9 0.761719 17.2Z" fill="#103A98"/>
<path d="M64.86 239.13C64.04 237.11 63.27 237 55.52 237C48.71 237 47 237.29 47 238.46C47 239.26 46.02 240.84 44.81 241.96C47.79 239.19 47.67 234.58 44.55 231.45C42.18 229.09 41.59 229 28.55 229H15V214.02C15 199.31 15.04 199.03 17.25 198.5C18.49 198.2 126.82 198.08 258 198.23L496.5 198.5L496.78 213.75L497.05 229H284.07C127.91 229 70.43 229.3 68.61 230.13C65.18 231.69 63.87 235.82 64.86 239.13ZM20.02 319.72C15.91 317.63 15.03 314.47 15.01 301.75L15 290H497V302.44C497 314.16 496.86 315.05 494.59 317.69L492.17 320.5L257.34 320.74C70.23 320.93 22 320.72 20.02 319.72ZM473 53.5C473 54.93 474.1 57.2 475.45 58.55C474.1 57.2 473 55.51 473 54.8C473 53.81 470.96 53.58 464.5 53.82C459.83 54 456 54.58 456 55.12C456 55.65 454.9 57.2 453.55 58.55C454.9 57.2 456 54.93 456 53.5C456 52.07 454.9 49.8 453.55 48.45L451.09 46H272V15H491.15L494.08 17.92C497 20.84 497 20.86 497 33.42V46H487.45C478.65 46 477.72 46.19 475.45 48.45C474.1 49.8 473 52.07 473 53.5ZM272.67 137.33C272.3 136.97 272 129.99 272 121.83V107H497V138H385.17C323.66 138 273.03 137.7 272.67 137.33Z" fill="#EA1F34"/>
<path d="M0.02 370.25L0.04 316.5L2.08 321C4.59 326.55 8.26 330.52 13.5 333.34L17.5 335.5L254.36 335.76C410.77 335.93 492.49 335.68 494.96 335.01C500.91 333.41 506.45 328.75 509.36 322.9L512 317.61V370.8V424H256H0L0.02 370.25ZM15 260.12V245.25L18.12 244.62C19.84 244.28 26.06 244 31.94 244C41.31 244 42.89 243.75 44.81 241.96C46.02 240.84 47 239.26 47 238.46C47 237.29 48.71 237 55.52 237C63.64 237 64.09 237.12 64.98 239.44C65.49 240.78 66.8 242.36 67.89 242.94C69.27 243.68 134.81 244 283.43 244H497V259.5V275H256H15V260.12ZM272 168.5V153H384.5H497V168.5V184H384.5H272V168.5ZM272 76.5V61H361.55H451.09L453.55 58.55C454.9 57.2 456 55.65 456 55.12C456 54.58 459.83 54 464.5 53.82C470.96 53.58 473 53.81 473 54.8C473 55.51 474.1 57.2 475.45 58.55C477.72 60.81 478.65 61 487.45 61H497V76.5V92H384.5H272V76.5ZM0.04 -34.75L0 -88H256H512V-34.89V18.23L509.21 12.86C505.4 5.52 499.21 1.38 490.76 0.529999C487.32 0.179999 379.42 0.039997 251 0.199997L17.5 0.5L13.5 2.66C8.64 5.28 4.91 9.17 2.16 14.5L0.09 18.5L0.04 -34.75Z" fill="#FBFAFC"/>
</g>
<defs>
<clipPath id="clip0_84_2636">
<rect width="512" height="335" rx="24" fill="white"/>
</clipPath>
</defs>
</svg>
